<?xml version="1.0" encoding="UTF-8"?>
<svg xmlns="http://www.w3.org/2000/svg" version="1.1" viewBox="0 0 595.3 841.9">
  <defs>
    <style>
      .cls-1 {
        fill: #525252;
      }

      .cls-2 {
        fill: #646464;
      }

      .cls-3 {
        fill: #5f5f5f;
      }

      .cls-4 {
        fill: #585858;
      }

      .cls-5 {
        fill: #5a5a5a;
      }

      .cls-6 {
        fill: #4f4f4f;
      }

      .cls-7 {
        fill: #434343;
      }

      .cls-8 {
        fill: #9c9c9c;
      }

      .cls-9 {
        fill: #4e4e4e;
      }

      .cls-10 {
        fill: #505050;
      }

      .cls-11 {
        fill: #9f9f9f;
      }

      .cls-12 {
        fill: #4d4d4d;
      }

      .cls-13 {
        fill: #626262;
      }

      .cls-14 {
        fill: #a4a4a4;
      }

      .cls-15 {
        fill: #5e5e5e;
      }

      .cls-16 {
        fill: #daf1fe;
      }

      .cls-17 {
        fill: #a6a6a6;
      }

      .cls-18 {
        fill: #5b5b5b;
      }

      .cls-19 {
        fill: #606060;
      }

      .cls-20 {
        fill: #535353;
      }

      .cls-21 {
        fill: #4c4c4c;
      }

      .cls-22 {
        fill: #404040;
      }

      .cls-23 {
        fill: #a0a0a0;
      }

      .cls-24 {
        fill: #acacac;
      }

      .cls-25 {
        fill: #c8c8c8;
      }

      .cls-26 {
        fill: #454545;
      }

      .cls-27 {
        fill: #656565;
      }

      .cls-28 {
        fill: #575757;
      }

      .cls-29 {
        fill: #7bcffe;
      }

      .cls-30 {
        fill: #616161;
      }

      .cls-31 {
        fill: #595959;
      }

      .cls-32 {
        fill: #a8a8a8;
      }

      .cls-33 {
        fill: #515151;
      }

      .cls-34 {
        fill: #9e9e9e;
      }

      .cls-35 {
        fill: #464646;
      }

      .cls-36 {
        fill: #545454;
      }

      .cls-37 {
        fill: #a9a9a9;
      }

      .cls-38 {
        fill: #aeaeae;
      }

      .cls-39 {
        fill: #959595;
      }

      .cls-40 {
        fill: #a3a3a3;
      }

      .cls-41 {
        fill: #ababab;
      }

      .cls-42 {
        fill: #aaa;
      }

      .cls-43 {
        fill: #5d5d5d;
      }

      .cls-44 {
        fill: #adadad;
      }

      .cls-45 {
        fill: #a1a1a1;
      }

      .cls-46 {
        fill: #9d9d9d;
      }

      .cls-47 {
        fill: #fdfdfd;
      }

      .cls-48 {
        fill: #5c5c5c;
      }

      .cls-49 {
        fill: #414141;
      }

      .cls-50 {
        fill: #afafaf;
      }

      .cls-51 {
        fill: #a2a2a2;
      }
    </style>
  </defs>
  <!-- Generator: Adobe Illustrator 28.7.3, SVG Export Plug-In . SVG Version: 1.2.0 Build 164)  -->
  <g>
    <g id="Layer_1">
      <g>
        <path class="cls-47" d="M702.9,421.3c0,133.7,0,267.4,0,401.1,0,2.8-.6,3.5-3.4,3.5-267.7,0-535.3,0-803,0-3.2,0-3.6-.9-3.6-3.7,0-267.5,0-535.1,0-802.6,0-3,.6-3.7,3.6-3.7,267.5,0,535.1,0,802.6,0,3.4,0,3.7,1,3.7,3.9,0,133.8,0,267.7,0,401.5Z"/>
        <path d="M341.9,333.5c-3.2-3.2-6.5-6.5-9.7-9.7-1.4-1.9.3-2.9,1.4-4,5.1-5.2,10.3-10.3,15.4-15.4,1.1-1.1,2.2-2.1,3.3-3.2,3-3,5.9-5.9,8.9-8.9,2.7-2.7,5.4-5.4,8.2-8.2,1.1-1,2.1-2.1,3.2-3.2,1.7-1.7,3.4-3.4,5.1-5,1.2-1.3,2.5-2.5,3.8-3.8,1-1,2.1-2,3.1-3.1.8-.8,1.6-1.7,2.5-2.5,1.6-1.7,3.4-3.3,5-5.1,1.9-2.3,3.5-2.1,5.5,0,7.6,7.7,15.3,15.3,23,23,1.2,1.2,2.5,2.4,3.8,3.6,17.8,17.9,35.6,35.8,53.4,53.6,24.2,24.3,48.5,48.5,72.8,72.8.4.3.8.6,1.1,1,1.1,1.3,2.3,2.6,3.5,3.7,1.6,1.4,1.5,2.6,0,4-2.2,1.4-3.7,3.5-5.5,5.2-3.2,3.3-6.5,6.5-9.7,9.7-3.7,3.7-7.4,7.5-11.2,11.2-2,2-4,4-6.1,6.1-2.2,2.3-4.5,4.5-6.8,6.8-2.5,2.5-5,5-7.5,7.5-4.2,4.2-8.5,8.5-12.7,12.7-6.5,6.5-12.9,13-19.4,19.4-4.5,4.5-9,9-13.5,13.5-5.5,5.5-11,11-16.5,16.5-5.7,5.7-11.5,11.5-17.2,17.2-5,5-10,10-15,15-4,4-8,8-12,12-1.9,2.2-4.4,3.9-6,6.4-1.1,1.1-2.1.8-3.2-.2-1-.9-1.8-2-3.1-2.5h0c-1.7-2.9-4.5-4.9-6.7-7.3-1-1.1-2.2-2.1-3.2-3.2-3.4-3.3-6.6-6.7-10.1-9.9-.3-.2-.5-.4-.8-.6-2.6-3.2-5.7-5.8-8.5-8.8-4.3-3.9-7.9-8.5-12.6-12h0c-3-4.3-7.2-7.5-10.7-11.3-1.4-1.4-2.7-2.7-4.1-4.1-1-1-1.9-2-.8-3.4,18.6-18.5,37.2-37,55.7-55.5,13.2-13.2,26.3-26.4,39.4-39.6,2.1-1.7,2.2-3.3,0-5-1.2-.9-2.1-2.1-3-3.2l-1.5-1.5c-1.4-1.1-2.7-2.4-3.9-3.7-1.9-2-4-3.8-5.8-6l-11.3-11.3c-1.4-1.2-2.7-2.4-3.9-3.7-1.9-2-4-3.8-5.8-6-.5-.5-1-1-1.5-1.5-2.1-1.8-4-3.8-5.9-5.7-.9-.8-1.7-1.7-2.5-2.5-1.7-1.7-3.4-3.3-5-5-1-1.1-2.2-2.1-3.2-3.2-3-2.9-5.9-5.9-8.8-8.8-2.5-2.5-5-5-7.5-7.5-1.3-1.3-2.6-2.6-3.9-3.9-3.9-3.8-7.6-7.8-11.6-11.4Z"/>
        <path d="M259.5,317.1c.3.2.5.4.8.7,1,1,2.2,1.9,3.2,3.1,3,3,6,5.9,8.9,8.9,2.4,2.4,4.9,4.8,7.3,7.3.6.6,1.2,1.2,1.8,1.8,1.4,1.4,2.8,2.8,4.3,4.3,1.3,1.2,2.5,2.6,3.8,3.8.6.6,1.2,1.1,1.7,1.7,1.4,1.4,2.8,2.8,4.2,4.2.8.9,1.6,1.7,2.5,2.5,1.4,1.4,2.9,2.9,4.3,4.3,1.5,1.5,3,3,4.5,4.5.8.7,1.5,1.6,2.4,2.4,1.2,1.2,2.5,2.4,3.6,3.8.3.2.5.4.8.7,1,1,2.1,1.9,3.1,2.9.8.8,1.5,1.7,2.4,2.4,1.4,1.4,2.8,2.8,4.3,4.3,1.5,1.5,3,3,4.5,4.5.8.7,1.5,1.6,2.4,2.4,1.2,1.2,2.5,2.4,3.6,3.8.3.2.5.4.8.7,1,1,2.1,1.9,3,2.9.7.8,1.5,1.6,2.3,2.3,1.2,1.2,2.5,2.4,3.6,3.8.3.2.5.4.8.7,1.5,1.4,3,2.8,4.4,4.3.8.8,1.6,1.6,2.4,2.4,1.3,1.2,2.5,2.4,3.6,3.8.3.2.5.4.8.7,1.5,1.5,3.3,2.7,4.3,4.7h0c1.6,1.5,5.1,2.4,1.7,5.4-6.8,6.6-13.5,13.5-20.3,20.2-12.7,12.7-25.4,25.5-38.2,38.2-8,8-15.9,16-23.9,23.9-2.8,2.8-5.5,5.6-8.3,8.3-3.8,3.8-7.5,7.5-11.3,11.3-9.2,9.2-18.4,18.5-27.7,27.7-10,10-20,20.1-30.1,30.1-2.1.6-2.6-1.4-3.8-2.3-1.6-1.8-3.5-3.3-5-5.2-2-2.8-4.4-5.3-7.3-7.3-1.5-1.2-2.8-2.5-4-4-3.2-4.1-6.9-7.7-10.9-10.9-1.9-1.4-3.4-3.3-5.1-4.9-1.8-1.8-3.6-3.5-5.4-5.4-6.5-6.5-13-12.9-19.4-19.4q-3.1-3.2,0-6.4c1.1-1.1,2.3-2.3,3.4-3.4.8-.9,1.6-1.6,2.4-2.5.9-.7,1.5-1.6,2.4-2.4,1.2-1.3,2.5-2.5,3.8-3.8,1.4-1.4,2.9-2.9,4.3-4.3,1.1-1,2-2.1,3.1-3.1,1-1,2-2,3-3,1.2-1.3,2.5-2.4,3.7-3.7,1-1,2-2,3-3,1.3-1.3,2.5-2.5,3.8-3.8,1.2-1.2,2.4-2.3,3.6-3.5.8-.8,1.6-1.6,2.4-2.4,1.1-1,2-2.1,3-3,1.2-1.2,2.5-2.5,3.7-3.7,1.5-1.5,3-3,4.5-4.5,1.7-1.7,3.4-3.5,5.2-5.1.3-.4.7-.9,1-1.3.9-.9,1.9-1.6,2.7-2.5.9-.7,1.5-1.7,2.4-2.4,1.6-1.7,3.3-3.3,5-5,1.5-1.5,3-3,4.5-4.5,1.3-1.2,2.5-2.5,3.7-3.7,1-1.1,2.1-2,3-3,.8-.8,1.6-1.6,2.4-2.4,1.2-1.2,2.4-2.4,3.6-3.6,1.2-1.2,2.4-2.4,3.6-3.6.7-.9,1.6-1.5,2.4-2.4.8-.8,1.5-1.6,2.3-2.3,1-1,2.1-1.9,2.9-3.2.4-3-2.6-3.7-3.8-5.5-28.1-28-56.1-56.1-84.1-84.1-1.1-1.1-2.2-2.4-3.7-3.1-1.4-1-2.5-2.3-3.7-3.5q-3-3,0-6c2.3-2.3,4.6-4.6,6.9-6.9,3.5-3.5,7-7,10.5-10.5,3.7-3.6,7.1-7.4,11-10.8,2.8-1.9,5-4.4,7.2-7h0c3-3.6,6.4-6.6,9.6-9.9,1.9-1.9,3.7-3.9,5.7-5.6,1.4-.6,2.4-1.7,3.1-3.1,1.5-1.8,3.3-3.3,4.9-5.1,1.4-1.6,2.7-1.5,3.9,0,2.6,2.9,5.5,5.5,8.2,8.3,1.8,1.7,3.5,3.5,5.2,5.2,1.1,1,2,2.1,3.1,3.1,1.3,1.2,2.5,2.6,3.8,3.8,2,2,4,4,6,6,9.9,10,20.1,19.7,29.7,30Z"/>
        <path class="cls-29" d="M101.3,364.4c9.6,9.6,19.1,19.3,28.7,28.9,8.6,8.6,17.3,17.2,26,25.8,2.2,1.5,1.3,2.8-.1,4.3-4.8,4.8-9.5,9.5-14.3,14.3-13.5,13.5-27,26.9-40.4,40.5-2.2,2.3-3.5,2.1-5.7,0-17.8-18-35.8-35.8-53.7-53.8-3-3-3-3-.1-5.9,18-18,36-36,53.9-54,2.1-2.2,3.8-2.6,5.7,0Z"/>
        <path class="cls-16" d="M101.3,364.4c-2.1-1.7-3.7-1.3-5.7.7-17.7,17.9-35.5,35.7-53.5,53.4-2.3,2.2-2.1,3.4,0,5.6,17.9,17.7,35.7,35.5,53.5,53.4,2.1,2.1,3.3,2.1,5.3,0,17.8-18,35.8-35.9,53.7-53.7,1.4-1.4,2.9-2.6,1.3-4.7,3.9,1.6,1.7,3.2,0,4.8-17.1,17.1-34.2,34.2-51.4,51.4q-6.3,6.3-12.6,0c-16.8-16.8-33.5-33.5-50.3-50.3-3.6-3.6-3.6-3.8,0-7.5,18-18,36-36,54-54,3-3,3.4-2.9,5.5.9Z"/>
        <path class="cls-22" d="M144.7,328.5c1.9.6,2.9,2.3,4.2,3.6,27.4,27.4,54.8,54.8,82.3,82.2.5.5,1,1.1,1.5,1.7-.3.4-.6.5-.9.1-18.4-18.3-36.8-36.7-55.2-55-10.5-10.4-21-20.8-31.5-31.3-.7-.3-.6-.8-.3-1.3Z"/>
        <path class="cls-7" d="M302.8,481.2c12.7-12.7,25.5-25.5,38.2-38.2.4-.3.7-.3,1,0-9.6,9.7-19.2,19.5-28.8,29.2-3.1,3.1-6.2,6-9.4,9.1-.4.3-.7.3-1,0Z"/>
        <path class="cls-51" d="M424.1,288.1c-1.5,0-2-1.3-2.9-2.2-8-8-16.1-15.9-24-24-1.9-2-3.2-2.2-5.1,0-1.6,1.9-3.6,3.4-5.4,5.1-.2-.2-.3-.4-.2-.6,0-.2.1-.3.2-.3,1.9-2,3.8-3.9,5.7-5.9,1.2-1.3,2.6-1.7,3.9-.5,9.3,9.5,19.2,18.3,27.9,28.4Z"/>
        <path class="cls-2" d="M259.5,317.1c-4.1-2.8-7.1-6.8-10.6-10.2-6.6-6.4-13-13-19.5-19.5-.1-.2-.1-.4,0-.6.2,0,.5,0,.7,0,9.7,9.6,19.3,19.2,29,28.8.3.3.3.9.5,1.4Z"/>
        <path class="cls-35" d="M201.8,582.4c3.4-4.6,7.9-8.2,11.8-12.3,5.9-6,12-11.9,18-17.8.4-.3.7-.3,1,0-8.4,9.2-17.5,17.8-26.4,26.6-1,1-2.1,2.1-3.1,3.2-.4.6-.8.5-1.3.2Z"/>
        <path class="cls-26" d="M232.6,552.4c-.3,0-.7,0-1,0,9.3-9.3,18.5-18.5,27.8-27.8.4.3.4.6,0,1-8.7,9.3-17.6,18.2-26.9,26.9Z"/>
        <path class="cls-26" d="M302.8,481.2c.3,0,.7,0,1,0-8,8.5-16.2,16.8-24.8,24.8-.4-.3-.4-.6,0-1,8-8,15.9-15.9,23.9-23.9Z"/>
        <path class="cls-49" d="M341.9,443c-.3,0-.7,0-1,0,6.7-6.9,13.3-13.8,20.3-20.2.2.2.3.4.3.6,0,.2,0,.3-.2.3-6.3,6.7-12.6,13.2-19.5,19.3Z"/>
        <path class="cls-10" d="M475.8,501.4c6.5-6.5,13-13,19.5-19.5.3-.3.6-.3.9,0-6.2,6.8-12.7,13.2-19.5,19.5-.3.4-.7.3-.9,0Z"/>
        <path class="cls-44" d="M141.2,523.1c6.5,6.5,13,13,19.4,19.5-.3.4-.6.4-1,0-6.5-6.5-13-13-19.5-19.5.3-.4.6-.4,1-.1Z"/>
        <path class="cls-23" d="M349.3,304.4c-5,5.1-10,10.3-15.1,15.4-1.1,1.2-2.4,2.2-2.1,4-2.4-1.4-.9-2.6.2-3.7,5.6-5.6,11.2-11.1,16.9-16.7.4.3.4.6,0,1Z"/>
        <path class="cls-1" d="M428.6,548.6c5.7-5.7,11.5-11.5,17.2-17.2.3-.3.7-.3,1,0-5.4,6-11.2,11.7-17.2,17.2-.4.3-.7.3-1,0Z"/>
        <path class="cls-1" d="M446.8,531.4c-.3,0-.6,0-.9,0,5.5-5.5,11-11,16.5-16.5.4-.3.7-.3,1,0-5.3,5.7-10.7,11.3-16.5,16.5Z"/>
        <path class="cls-20" d="M428.6,548.6c.3,0,.7,0,1,0-4.8,5.2-9.7,10.2-15,15-.3.3-.7.3-1,0,5-5,10-10,15-15Z"/>
        <path class="cls-33" d="M463.3,514.9c-.3,0-.7,0-1,0,4.5-4.5,9-9,13.5-13.5.3,0,.6,0,.9,0-4.2,4.7-8.8,9.2-13.5,13.5Z"/>
        <path class="cls-6" d="M496.2,482c-.3,0-.6,0-.9,0,4.3-4.3,8.5-8.5,12.8-12.8.4.3.4.6,0,.9-3.7,4.2-7.7,8.2-11.9,11.9Z"/>
        <path class="cls-20" d="M413.6,563.5c.3,0,.6,0,1,0-3.7,4.3-7.7,8.2-12,12-.3.4-.7.3-.9,0,4-4,8-8,11.9-12Z"/>
        <path class="cls-23" d="M347.8,537.5c2.2,0,3.1,1.9,4.3,3.1,2.9,2.8,5.7,5.8,8.5,8.7-.3.4-.6.4-.9,0-4-4-7.9-8-11.9-11.9Z"/>
        <path class="cls-44" d="M169.4,291.6c-3.7,3.5-7.4,7.1-11,10.6-.4.3-.7.3-1,0,4-4,7.6-8.5,12.3-11.8.3.5.3.9-.2,1.3Z"/>
        <path class="cls-42" d="M341.9,333.5c4.8,2.9,8.1,7.3,11.9,11.3.2.2.3.4.2.6,0,.2-.2.3-.2.3-4.1-3.9-8.4-7.7-11.9-12.2Z"/>
        <path class="cls-35" d="M259.5,525.5c0-.3,0-.7,0-1,3.7-3.7,7.4-7.4,11.2-11.2.4-.3.7-.3,1,.1-3.8,4.3-7.7,8.3-12.1,12Z"/>
        <path class="cls-21" d="M170.9,552.5c4.2,3.3,7.9,7.1,11.2,11.2-.5.3-.9.4-1.3-.2-3.2-3.2-6.5-6.5-9.7-9.7-.6-.3-.5-.8-.2-1.3Z"/>
        <path class="cls-6" d="M528.2,448.9c3.8-3.7,7.5-7.5,11.3-11.2.4-.3.7-.3,1,0-3.5,4-7.2,7.7-11.2,11.2-.4.3-.7.3-1,0Z"/>
        <path class="cls-44" d="M157.4,302.1c.3,0,.7,0,1,0-3.2,3.8-6.7,7.2-10.5,10.5-.3.4-.7.3-.9,0,3.5-3.5,7-7,10.4-10.5Z"/>
        <path class="cls-25" d="M144.7,328.5c.1.4.2.9.3,1.3-2.8-1.3-4.6-3.7-6.4-5.9-2.4-2.9.8-3.9,2.3-5.4.4.2.5.5.2.9-2.8,2.2-2.2,4.1.4,6.1,1.2.9,2.1,2,3.2,3Z"/>
        <path class="cls-23" d="M337.4,526.1c3.6,3.6,8,6.5,10.4,11.4-3.5-3.5-7-6.9-10.4-10.4-.3-.3-.3-.7,0-1Z"/>
        <path class="cls-45" d="M369.7,559c4.2,2.5,7.1,6.4,10.4,9.9-.3.3-.6.3-.9,0-3.3-3.2-7-6-9.5-9.9Z"/>
        <path class="cls-9" d="M540.4,437.8c-.3,0-.6,0-1,0,3.2-3.2,6.5-6.5,9.7-9.7.4-.3.7-.3,1,0-3,3.5-6.3,6.7-9.7,9.7Z"/>
        <path class="cls-50" d="M203.1,261.1c-1-1-1.9-1.7-3.2-.2-1.6,1.8-3.4,3.4-5.1,5.1-.3.7-.7.6-1.2.3,1.4-2.8,4-4.6,6.2-6.7,1.8-1.8,3.3-.7,4.3,1.2-.2.4-.5.5-.9.2Z"/>
        <path class="cls-38" d="M186.1,274.5c-3.1,3.4-6.1,6.9-9.9,9.6,2-4.1,5.9-6.5,8.9-9.7.4-.3.7-.3,1,0Z"/>
        <path class="cls-23" d="M361.3,292.4c-2.7,3.2-5.8,6.2-9,9-.3.3-.7.3-1,0,3-3,6-6,9-9,.3-.3.7-.3,1,0Z"/>
        <path class="cls-4" d="M271.9,330c-3-3-6-6-8.9-9,.3-.3.5-.3.8,0,3.3,2.7,6.2,5.8,9.1,9-.3.3-.6.3-1,0Z"/>
        <path class="cls-8" d="M141.2,523.1c-.3,0-.6,0-1,.1-2.8-1.9-2.9-3.9-.3-6.1,1.4-1.2,2.7-2.5,4-3.7.3-.2.6-.2.8,0-1.1,1.2-2,2.6-3.2,3.5-2.7,2-2.9,4-.3,6.2Z"/>
        <path class="cls-32" d="M365.1,356.1c3.3,2.7,6.3,5.8,9,9-.3.4-.6.4-.9,0-2.7-2.7-5.5-5.5-8.2-8.2-.2-.2-.3-.4-.2-.6,0-.2.2-.3.2-.3Z"/>
        <path class="cls-45" d="M361.3,292.4c-.3,0-.6,0-1,0,3-3,6.1-6,9.1-9.1.4.3.4.6,0,1-2.5,2.9-5.2,5.7-8.2,8.2Z"/>
        <path class="cls-23" d="M359.7,549.4c.3,0,.6,0,.9,0,2.9,2.8,6.4,5.1,8.3,9-3.5-2.5-6.2-5.8-9.2-8.9Z"/>
        <path class="cls-19" d="M203.1,261.1c.3,0,.6-.1.9-.2,2.5,2.5,4.9,5.1,7.4,7.6.3.3.3.7,0,1-2.8-2.8-5.5-5.6-8.3-8.3Z"/>
        <path class="cls-10" d="M508.2,470c0-.3,0-.6,0-.9,2.5-2.5,4.9-5,7.4-7.4.4-.3.7-.3,1,0-2.5,3-5.3,5.8-8.3,8.3Z"/>
        <path class="cls-42" d="M365.1,356.1c0,.3,0,.6,0,.9-2.8-2.8-5.5-5.5-8.3-8.3.3-.3.5-.3.8,0,2.8,2.2,5.2,4.7,7.5,7.5Z"/>
        <path class="cls-24" d="M424.2,415.4c1.8.7,2.7,2.4,4.1,3.6,2.4,2.1,1.9,3.6-1,4.7,1.3-2.1,1-3.8-1.1-5.3-.9-.7-2.1-1.4-2-2.9Z"/>
        <path class="cls-26" d="M271.5,513.5c-.3,0-.7,0-1-.1,2.8-2.8,5.5-5.5,8.3-8.3,0,.3,0,.7,0,1-2.1,2.8-4.7,5.2-7.4,7.4Z"/>
        <path class="cls-12" d="M185.9,567.5c3,2,5.5,4.5,7.5,7.5-.5.3-.9.4-1.3-.2-2-2-4-4-6-6-.6-.3-.5-.8-.2-1.3Z"/>
        <path class="cls-45" d="M383.1,571.8c2.4,2.4,5.5,4.1,6.6,7.6l-7.5-7.5c.3-.4.6-.4.9,0Z"/>
        <path class="cls-39" d="M554.7,422.8c1.5-1.2,1.2-2.3,0-3.6-1.1-1.2-2.8-2-3.1-3.8,1.9.6,2.8,2.3,4.1,3.5,2.1,1.9,1.7,3.6-.8,4.8-.5-.2-.5-.5-.1-.8Z"/>
        <path class="cls-28" d="M271.9,330c.3,0,.6,0,1,0,2.2,2.3,4.5,4.5,6.7,6.8.3.3.3.6,0,.9-2.5-2.5-5.1-5-7.6-7.6Z"/>
        <path class="cls-23" d="M337.4,526.1c0,.3,0,.6,0,.9-1.8-1.7-3.6-3.5-5.4-5.2-1.2-1.2-1.6-2.3.3-3.2,0,3.7,3.8,4.7,5.2,7.4Z"/>
        <path class="cls-21" d="M169.4,291.6c0-.4.2-.9.2-1.3,2.3-1.9,4-4.6,6.7-6.1-1.4,3.3-4.2,5.3-6.9,7.4Z"/>
        <path class="cls-50" d="M186.1,274.5c-.3,0-.7,0-1,0,2.3-2.3,4.2-4.9,7-6.6.3.5.4.9-.2,1.3-1.9,1.8-3.9,3.6-5.8,5.4Z"/>
        <path class="cls-6" d="M516.5,461.8c-.3,0-.7,0-1,0,2.3-2.3,4.6-4.5,6.8-6.8.4.3.4.6,0,.9-1.7,2.3-3.7,4.2-5.9,6Z"/>
        <path class="cls-24" d="M141.1,319.4c0-.3-.1-.6-.2-.9,2-2,4-3.9,6-5.9.3,0,.6,0,.9,0-2,2.5-4.2,4.8-6.8,6.7Z"/>
        <path class="cls-6" d="M522.4,455.8c0-.3,0-.6,0-.9,2-2,3.9-3.9,5.9-5.9.3,0,.7,0,1,0-2,2.5-4.2,4.8-6.8,6.8Z"/>
        <path class="cls-2" d="M229.4,286.9c0,.2,0,.4,0,.6-2-2-4-4.1-6-6.1-.2-.2-.2-.4-.1-.6,0-.2.1-.3.2-.3,2.3,1.8,4.6,3.6,5.9,6.3Z"/>
        <path class="cls-51" d="M389.7,579.4c1.5-.2,2.2.9,3,1.8.9.9,1.8,1.8,3.1.4.3-.4.6-.4.8.1-.9,2.1-2.3,2.4-4,.9-1.1-1-2-2.1-2.9-3.2Z"/>
        <path class="cls-36" d="M396.6,581.8c-.3,0-.5,0-.8-.1,1.4-2.5,3.7-4.2,5.8-6.1.3,0,.6,0,.9,0-2,2-4,4.1-5.9,6.1Z"/>
        <path class="cls-15" d="M361.4,423.7c0-.3,0-.6-.1-.9,2.8-2.7-1.1-3.4-1.5-5.2,4.4,1.8,4.8,3.4,1.6,6.1Z"/>
        <path class="cls-42" d="M392,383.2c2.4,1.6,4.3,3.6,6.1,5.9-.3.3-.6.3-.9,0-1.9-1.8-4.2-3.3-5.2-5.9Z"/>
        <path class="cls-38" d="M170.9,552.5c0,.4.2.9.2,1.3-2.6-1.4-4.3-3.8-6.3-5.8.3-.4.6-.4.9,0,1.7,1.5,3.4,3.1,5.1,4.6Z"/>
        <path class="cls-41" d="M413,404.1c2.4,1.6,4.3,3.7,6.1,5.9-.3.3-.6.3-.9,0-1.9-1.8-4.3-3.3-5.2-5.9Z"/>
        <path class="cls-37" d="M384.5,375.6c2.3,1.7,4.3,3.6,5.9,6.1-2.7-.9-4.1-3.3-5.9-5.2-.2-.2-.3-.4-.2-.6,0-.2.2-.3.2-.3Z"/>
        <path class="cls-6" d="M231.7,416c.3,0,.6,0,.9-.1,1.1,1.1,2.3,2.1,3.4,3.2.8.8,1.9,1.8.4,2.9-.8-.3-.4-1.2-.7-1.7-1.3-1.5-2.6-2.9-3.9-4.4Z"/>
        <path class="cls-19" d="M211.4,269.4c0-.3,0-.6,0-1,1.7,1.8,3.5,3.5,5.2,5.3.3.3.3.6,0,.9-1.7-1.7-3.5-3.5-5.2-5.2Z"/>
        <path class="cls-38" d="M192.1,574.7c.4,0,.8.2,1.3.2,1.6,1.7,3.1,3.4,4.7,5.1-.3.4-.6.4-.9,0-1.8-1.7-3.9-3.1-5-5.4Z"/>
        <path class="cls-45" d="M377.9,276c-1.6,1.9-3.2,3.8-5.3,5.2-.3.3-.7.3-1,0,1.8-1.8,3.5-3.5,5.3-5.3.4-.3.7-.3,1,0Z"/>
        <path class="cls-44" d="M165.8,547.8c-.3,0-.6,0-.9,0-1.7-1.7-3.5-3.5-5.2-5.2.3,0,.6,0,1,0,1.9,1.5,3.8,3.2,5.2,5.3Z"/>
        <path class="cls-42" d="M377.1,368.1c2,1.5,3.7,3.3,5.3,5.2-.3.4-.6.4-.9,0-1.7-1.8-3.5-3.5-5.2-5.3.3-.3.6-.4.9,0Z"/>
        <path class="cls-19" d="M323,380.9c-1.5-1.5-3-2.9-4.4-4.4-.2-.3-.2-.6,0-.8,2.1,1.4,3.8,3.2,5.2,5.2-.3.3-.6.3-.9,0Z"/>
        <path class="cls-34" d="M196.3,461.6c-1.3,2.2-3.1,3.8-5.1,5.3-.2-.2-.3-.4-.2-.5,0-.2.1-.3.2-.3,1.6-1.6,2.7-3.8,5.2-4.4Z"/>
        <path class="cls-30" d="M302,359.9c-1.5-1.5-3-3-4.4-4.4-.2-.3-.2-.6,0-.8,2,1.4,3.8,3.1,5.2,5.2-.3.3-.5.3-.8,0Z"/>
        <path class="cls-38" d="M185.9,567.5c0,.4.2.8.2,1.3-2.3-1.2-4-3-5.2-5.3.4,0,.8.2,1.3.2,1.2,1.3,2.5,2.5,3.7,3.8Z"/>
        <path class="cls-12" d="M554.7,422.8c0,.3,0,.6.1.8-1.5,1.5-3,2.9-4.6,4.4-.3,0-.7,0-1,0,1.7-1.8,3.2-3.9,5.4-5.1Z"/>
        <path class="cls-40" d="M191.2,466.1c0,.3,0,.6,0,.8-1.3,1.8-2.8,3.3-4.5,4.5-.3.3-.6.3-.8,0,1.8-1.8,3.6-3.6,5.3-5.3Z"/>
        <path class="cls-50" d="M197.1,580.1c.3,0,.6,0,.9,0,1.5.4,1.9,2.6,3.7,2.3.4,0,.9-.1,1.3-.2q-2.4,2-6-2.1Z"/>
        <path class="cls-38" d="M212.2,445.9c-1.3,1.8-2.8,3.3-4.5,4.5-.3.3-.6.3-.8,0,1.8-1.8,3.5-3.5,5.3-5.3.2.2.3.3.3.5,0,.2-.1.3-.2.3Z"/>
        <path class="cls-34" d="M206.8,450.4c.3,0,.6,0,.8,0-1.4,2.1-3.2,3.8-5.2,5.2-.2-.2-.3-.4-.2-.6,0-.2.1-.3.2-.3,1.5-1.5,2.9-3,4.4-4.4Z"/>
        <path class="cls-45" d="M157.5,500.6c-1.2,1.8-2.8,3.3-4.5,4.6-.3.3-.6.3-.9,0,1.8-1.8,3.6-3.5,5.4-5.3.2.2.3.3.2.5,0,.2-.1.3-.2.3Z"/>
        <path class="cls-5" d="M348.4,406.3c-1.5-1.5-3.4-2.6-4.3-4.7,2.3.9,3.6,2.8,5.1,4.6-.3.3-.5.3-.8,0Z"/>
        <path class="cls-30" d="M295.2,353.2c-1.5-1.5-3-3-4.5-4.5.3-.3.6-.3.9,0,1.7,1.3,3.2,2.7,4.4,4.5-.2.3-.5.3-.8,0Z"/>
        <path class="cls-45" d="M377.9,276c-.3,0-.7,0-1,0,1.5-1.5,3.1-3.1,4.6-4.6.4.3.4.6,0,1-1,1.5-2.3,2.7-3.7,3.7Z"/>
        <path class="cls-1" d="M302,359.9c.3,0,.6,0,.8,0,1.3,1.2,2.5,2.5,3.8,3.7.3.4.3.7,0,.9-1.5-1.5-3-3.1-4.6-4.6Z"/>
        <path class="cls-31" d="M359.7,417.6c-1.7-1.3-3.4-2.6-4.3-4.7,2.1.9,3.7,2.3,4.3,4.7Z"/>
        <path class="cls-18" d="M323,380.9c.3,0,.6,0,.9,0,1.3,1.2,2.5,2.5,3.8,3.7.3.3.3.7,0,1-1.5-1.5-3.1-3.1-4.6-4.6Z"/>
        <path class="cls-1" d="M285.5,343.6l-4.6-4.6c.3-.3.5-.4.8,0,1.3,1.2,2.6,2.5,3.8,3.7.3.4.3.7,0,.9Z"/>
        <path class="cls-19" d="M333.6,391.3c-1.8-.6-2.6-2.3-3.9-3.6-.2-.2-.2-.4-.2-.6,0-.2.1-.3.2-.3,1.5,1.2,3.3,2.2,3.8,4.4Z"/>
        <path class="cls-3" d="M223.4,280.5c0,.3,0,.5,0,.8-1.3-1.2-2.5-2.4-3.8-3.6-.1-.2-.1-.4,0-.6,1.9.4,2.7,2.1,3.8,3.4Z"/>
        <path class="cls-51" d="M177.8,480.4c-1.1,1.4-2.3,2.7-3.8,3.7-.3.3-.6.3-.9,0,1.2-1.3,2.5-2.5,3.7-3.8.3-.2.6-.2.9.1Z"/>
        <path class="cls-30" d="M312.7,370.3c-1.8-.6-2.6-2.3-3.9-3.6-.2-.2-.2-.4-.2-.6,0-.2.1-.3.2-.3,1.5,1.2,3.3,2.2,3.8,4.4Z"/>
        <path class="cls-3" d="M343.4,401c-1.8-.6-2.7-2.3-3.9-3.6-.2-.2-.2-.4-.2-.6,0-.2.1-.3.2-.3,1.6,1.2,3.3,2.2,3.8,4.4Z"/>
        <path class="cls-41" d="M418.2,410.1c.3,0,.6,0,.9,0,1.5,1,2.8,2.1,3.6,3.8-2.2-.4-3.1-2.3-4.5-3.8Z"/>
        <path class="cls-3" d="M354.6,412.2c-1.8-.6-2.7-2.3-3.9-3.6-.2-.2-.2-.4-.2-.6,0-.2.1-.3.2-.3,1.5,1.2,3.3,2.2,3.8,4.4Z"/>
        <path class="cls-46" d="M167.2,490.9c-.9,1.6-2.2,2.7-3.7,3.8-.3.3-.7.3-1,0,1.3-1.2,2.5-2.5,3.8-3.7.3-.2.5-.2.8,0Z"/>
        <path class="cls-14" d="M225,433.2c-1,1.5-2.3,2.7-3.7,3.8-.2-.2-.3-.4-.3-.6,0-.2,0-.3.2-.3,1.3-1.2,2.5-2.5,3.8-3.7.4.3.4.6,0,.9Z"/>
        <path class="cls-43" d="M285.5,343.6c0-.3,0-.6,0-.9,1.2,1.3,2.5,2.5,3.7,3.8.3.3.3.6,0,.9-1.3-1.2-2.5-2.5-3.8-3.7Z"/>
        <path class="cls-42" d="M397.2,389.1c.3,0,.6,0,.9,0,1.5,1,2.8,2.1,3.6,3.8-2.2-.5-3.2-2.3-4.5-3.8Z"/>
        <path class="cls-40" d="M167.2,490.9c-.3,0-.5,0-.8,0,1.3-1.3,2.5-2.6,3.8-3.8.2.2.3.4.3.6,0,.2-.1.3-.2.3-.8,1.3-1.8,2.3-3.1,3Z"/>
        <path class="cls-11" d="M212.2,445.9c0-.3,0-.6,0-.8,1-1,2-1.9,2.9-2.9.3-.3.6-.2.9,0-1,1.5-2.2,2.8-3.8,3.7Z"/>
        <path class="cls-46" d="M170.3,487.9c0-.3,0-.6,0-.8,1-1,1.9-1.9,2.9-2.9.3,0,.6,0,.9,0-1,1.5-2.2,2.8-3.7,3.7Z"/>
        <path class="cls-23" d="M235.6,420.4c.8.3.7,1,.7,1.7-1,.9-2.1,1.9-3.1,2.8-.2-.2-.3-.4-.2-.5,0-.2.1-.3.2-.3.8-1.3,2.3-2,2.5-3.7Z"/>
        <path class="cls-8" d="M152.1,505.1c.3,0,.6,0,.9,0-1,1.5-2.2,2.8-3.7,3.7-.2-.2-.3-.4-.2-.5,0-.2.1-.3.2-.3,1-1,1.9-1.9,2.9-2.9Z"/>
        <path class="cls-34" d="M185.9,471.4c.3,0,.6,0,.8,0-.9,1.5-2.2,2.7-3.7,3.8-.2-.2-.3-.4-.2-.6,0-.2.1-.3.2-.3,1-1,1.9-1.9,2.9-2.9Z"/>
        <path class="cls-23" d="M225,433.2c0-.3,0-.6,0-.9,1-1,1.9-1.9,2.9-2.9.3-.3.6-.2.8,0-1,1.5-2.2,2.7-3.7,3.7Z"/>
        <path class="cls-32" d="M357.6,348.6c-.3,0-.5,0-.8,0-1-1-2-1.9-2.9-2.9,0-.3,0-.6,0-.9,1.5,1,2.8,2.2,3.7,3.8Z"/>
        <path class="cls-46" d="M157.5,500.6c0-.3,0-.5,0-.8,1-1,2-2,3-3,.2.2.3.4.3.6,0,.2-.1.3-.2.3-.8,1.2-1.7,2.3-3,3Z"/>
        <path class="cls-23" d="M216,442.2c-.3,0-.6,0-.9,0,1-1,2-2,3-3,.3-.2.6-.2.8,0-.6,1.3-1.7,2.2-2.9,3Z"/>
        <path class="cls-5" d="M337.2,395.1c-1.1-.9-2.4-1.6-2.8-3.2,1.7.5,2.7,1.8,3.5,3.1-.3.3-.5.3-.8,0Z"/>
        <path class="cls-45" d="M383.1,571.8c-.3,0-.6,0-.9,0-1-1-2-2-3-3,.3,0,.6,0,.9,0,1.3.7,2.2,1.8,3,3Z"/>
        <path class="cls-27" d="M219.7,277.1c0,.2,0,.4,0,.6-1-1-2-2.1-3-3.1,0-.3,0-.6,0-.9,1.3.9,2.5,1.8,2.9,3.4Z"/>
        <path class="cls-43" d="M263.8,320.9c-.3,0-.5,0-.8,0-1-1-2.4-1.6-2.7-3.2,1.7.5,2.7,1.7,3.5,3.2Z"/>
        <path class="cls-37" d="M377.1,368.1c-.3,0-.6,0-.9,0-1-1-2-2-3-3,.3,0,.6,0,.9,0,1.2.8,2.3,1.7,3,3Z"/>
        <path class="cls-34" d="M182.9,474.3c0,.3,0,.6,0,.9-.8,1.2-1.7,2.3-3,2.9-.2-.2-.3-.3-.2-.5,0-.2,0-.3.1-.3,1-1,2-2,3-3Z"/>
        <path class="cls-45" d="M381.6,272.2c0-.3,0-.6,0-1,.7-.7,1.4-1.4,2.2-2.1.3-.3.7-.3.9,0-.8,1.2-1.8,2.3-3,3Z"/>
        <path class="cls-23" d="M371.6,281.1c.3,0,.6,0,1,0-.7,1.3-1.8,2.2-3,3,0-.3,0-.6,0-1,.7-.7,1.4-1.4,2.1-2.2Z"/>
        <path class="cls-17" d="M233.1,424.1c0,.3,0,.6,0,.8-.7.8-1.5,1.5-2.2,2.3-.3.3-.7.3-.9,0,1-1,2.1-2.1,3.1-3.1Z"/>
        <path class="cls-51" d="M144.7,513.4c-.3,0-.5,0-.8,0,1-1,2.1-2.1,3.1-3.1.4.3.4.6,0,1-.8.7-1.6,1.5-2.3,2.2Z"/>
        <path class="cls-38" d="M179.9,477.3v.8c-.7.8-1.4,1.6-2.2,2.3-.3,0-.6,0-.9-.1,1-1,2.1-2,3.1-3.1Z"/>
        <path class="cls-50" d="M218.9,439.2c-.3,0-.5,0-.8,0,1-1,2-2,3.1-3.1,0,.3,0,.6,0,.9-.8.7-1.6,1.5-2.3,2.2Z"/>
        <path class="cls-24" d="M381.4,373.4c.3,0,.6,0,.9,0,.9.6,1.7,1.2,2.2,2.3,0,.3,0,.6,0,.8-1-1-2-2-3.1-3Z"/>
        <path class="cls-10" d="M316.3,374.3c-1-1.1-2.5-1.7-2.8-3.3,1.4.3,2.1,1.4,2.9,2.4.3.3.3.7,0,1Z"/>
        <path class="cls-50" d="M200.2,458c-.8.9-1.5,2.1-2.9,2.4.4-1.6,1.8-2.3,2.8-3.3.4.3.4.6,0,.9Z"/>
        <path class="cls-23" d="M351.4,301.4c.3,0,.6,0,1,0-.8,1.2-1.8,2.3-3,3,0-.3,0-.6,0-1,.7-.7,1.4-1.4,2.2-2.1Z"/>
        <path class="cls-12" d="M191.9,269.1c0-.4.2-.9.2-1.3.5-.5,1-1,1.5-1.5.4,0,.8-.2,1.2-.3-.4,1.6-1.6,2.4-2.9,3.1Z"/>
        <path class="cls-8" d="M160.5,497.6c0-.3,0-.6,0-.9.7-.7,1.4-1.4,2.1-2.2.3,0,.6,0,1,0-.8,1.2-1.7,2.2-3,3Z"/>
        <path class="cls-51" d="M384.6,269.2c-.3,0-.6,0-.9,0,1-1,2-2.1,3.1-3.1,0,.3,0,.6,0,.9-.4,1.1-1.3,1.7-2.2,2.3Z"/>
        <path class="cls-18" d="M329.8,386.9c0,.3,0,.6,0,.9-.7-.7-1.5-1.5-2.2-2.2,0-.3,0-.6,0-1,.7.8,1.5,1.5,2.2,2.3Z"/>
        <path class="cls-45" d="M147.1,511.2c0-.3,0-.6,0-1,.7-.7,1.5-1.5,2.2-2.2,0,.3,0,.6,0,.8-.7.8-1.5,1.6-2.2,2.3Z"/>
        <path class="cls-48" d="M308.9,365.9c0,.3,0,.6,0,.9-.8-.7-1.5-1.5-2.3-2.2,0-.3,0-.6,0-.9.7.8,1.5,1.5,2.2,2.3Z"/>
        <path class="cls-45" d="M230.1,427.2c.3,0,.6,0,.9,0-.8.7-1.6,1.5-2.3,2.2-.3,0-.6,0-.8,0,.7-.8,1.5-1.5,2.2-2.3Z"/>
        <path class="cls-11" d="M200.2,458c0-.3,0-.6,0-.9.8-.7,1.5-1.5,2.3-2.2,0,.3,0,.6,0,.9-.5,1-1.3,1.7-2.2,2.3Z"/>
        <path class="cls-10" d="M316.3,374.3c0-.3,0-.6,0-1,.7.8,1.5,1.5,2.2,2.3,0,.3,0,.6,0,.8-.7-.7-1.5-1.5-2.2-2.2Z"/>
        <path class="cls-5" d="M337.2,395.1c.3,0,.5,0,.8,0,.8.2,1.3.8,1.6,1.5,0,.3,0,.6,0,.8-.8-.8-1.5-1.6-2.3-2.3Z"/>
        <path class="cls-5" d="M350.8,407.8c0,.3,0,.6,0,.8-.8-.8-1.5-1.6-2.3-2.3.3,0,.5,0,.8,0,.8.2,1.2.8,1.6,1.5Z"/>
        <path class="cls-13" d="M281.8,338.9c-.3,0-.6,0-.8,0-.5-.5-.9-.9-1.4-1.4,0-.3,0-.6,0-.9,1,.5,1.8,1.2,2.2,2.2Z"/>
        <path class="cls-1" d="M295.2,353.2c.3,0,.5,0,.8,0,.8.2,1.2.9,1.6,1.6,0,.3,0,.5,0,.8-.8-.8-1.5-1.5-2.3-2.3Z"/>
        <path class="cls-13" d="M289.3,347.3c0-.3,0-.6,0-.9,1,.5,1.7,1.2,2.2,2.2-.3,0-.6,0-.9,0-.5-.5-.9-.9-1.4-1.4Z"/>
      </g>
    </g>
  </g>
</svg>